<svg xmlns="http://www.w3.org/2000/svg" version="1.1" xmlns:xlink="http://www.w3.org/1999/xlink" xmlns:svgjs="http://svgjs.com/svgjs" width="1440" height="560" preserveAspectRatio="none" viewBox="0 0 1440 560">
    <g mask="url(&quot;#SvgjsMask2038&quot;)" fill="none">
        <path d="M250.81 580.8L337.41 630.8L337.41 730.8L250.81 780.8L164.2 730.8L164.2 630.8zM424.02 280.8L510.63 330.8L510.63 430.8L424.02 480.8L337.41 430.8L337.41 330.8zM683.84 130.8L770.44 180.8L770.44 280.8L683.84 330.8L597.23 280.8L597.23 180.8zM683.84 430.8L770.44 480.8L770.44 580.8L683.84 630.8L597.23 580.8L597.23 480.8zM857.05 430.8L943.65 480.8L943.65 580.8L857.05 630.8L770.44 580.8L770.44 480.8zM770.44 580.8L857.05 630.8L857.05 730.8L770.44 780.8L683.84 730.8L683.84 630.8zM1030.26 130.8L1116.86 180.8L1116.86 280.8L1030.26 330.8L943.65 280.8L943.65 180.8zM1030.26 430.8L1116.86 480.8L1116.86 580.8L1030.26 630.8L943.65 580.8L943.65 480.8zM1203.46 130.8L1290.07 180.8L1290.07 280.8L1203.46 330.8L1116.86 280.8L1116.86 180.8zM1116.86 580.8L1203.46 630.8L1203.46 730.8L1116.86 780.8L1030.25 730.8L1030.25 630.8zM1376.67 130.8L1463.28 180.8L1463.28 280.8L1376.67 330.8L1290.07 280.8L1290.07 180.8zM1290.07 280.8L1376.67 330.8L1376.67 430.8L1290.07 480.8L1203.46 430.8L1203.46 330.8zM1549.88 430.8L1636.49 480.8L1636.49 580.8L1549.88 630.8L1463.28 580.8L1463.28 480.8z" stroke="rgba(0, 0, 0, 0)" stroke-width="2"></path>
        <path d="M240.81 580.8 a10 10 0 1 0 20 0 a10 10 0 1 0 -20 0zM327.41 630.8 a10 10 0 1 0 20 0 a10 10 0 1 0 -20 0zM327.41 730.8 a10 10 0 1 0 20 0 a10 10 0 1 0 -20 0zM240.81 780.8 a10 10 0 1 0 20 0 a10 10 0 1 0 -20 0zM154.2 730.8 a10 10 0 1 0 20 0 a10 10 0 1 0 -20 0zM154.2 630.8 a10 10 0 1 0 20 0 a10 10 0 1 0 -20 0zM414.02 280.8 a10 10 0 1 0 20 0 a10 10 0 1 0 -20 0zM500.63 330.8 a10 10 0 1 0 20 0 a10 10 0 1 0 -20 0zM500.63 430.8 a10 10 0 1 0 20 0 a10 10 0 1 0 -20 0zM414.02 480.8 a10 10 0 1 0 20 0 a10 10 0 1 0 -20 0zM327.41 430.8 a10 10 0 1 0 20 0 a10 10 0 1 0 -20 0zM327.41 330.8 a10 10 0 1 0 20 0 a10 10 0 1 0 -20 0zM673.84 130.8 a10 10 0 1 0 20 0 a10 10 0 1 0 -20 0zM760.44 180.8 a10 10 0 1 0 20 0 a10 10 0 1 0 -20 0zM760.44 280.8 a10 10 0 1 0 20 0 a10 10 0 1 0 -20 0zM673.84 330.8 a10 10 0 1 0 20 0 a10 10 0 1 0 -20 0zM587.23 280.8 a10 10 0 1 0 20 0 a10 10 0 1 0 -20 0zM587.23 180.8 a10 10 0 1 0 20 0 a10 10 0 1 0 -20 0zM673.84 430.8 a10 10 0 1 0 20 0 a10 10 0 1 0 -20 0zM760.44 480.8 a10 10 0 1 0 20 0 a10 10 0 1 0 -20 0zM760.44 580.8 a10 10 0 1 0 20 0 a10 10 0 1 0 -20 0zM673.84 630.8 a10 10 0 1 0 20 0 a10 10 0 1 0 -20 0zM587.23 580.8 a10 10 0 1 0 20 0 a10 10 0 1 0 -20 0zM587.23 480.8 a10 10 0 1 0 20 0 a10 10 0 1 0 -20 0zM847.05 430.8 a10 10 0 1 0 20 0 a10 10 0 1 0 -20 0zM933.65 480.8 a10 10 0 1 0 20 0 a10 10 0 1 0 -20 0zM933.65 580.8 a10 10 0 1 0 20 0 a10 10 0 1 0 -20 0zM847.05 630.8 a10 10 0 1 0 20 0 a10 10 0 1 0 -20 0zM847.05 730.8 a10 10 0 1 0 20 0 a10 10 0 1 0 -20 0zM760.44 780.8 a10 10 0 1 0 20 0 a10 10 0 1 0 -20 0zM673.84 730.8 a10 10 0 1 0 20 0 a10 10 0 1 0 -20 0zM1020.26 130.8 a10 10 0 1 0 20 0 a10 10 0 1 0 -20 0zM1106.86 180.8 a10 10 0 1 0 20 0 a10 10 0 1 0 -20 0zM1106.86 280.8 a10 10 0 1 0 20 0 a10 10 0 1 0 -20 0zM1020.26 330.8 a10 10 0 1 0 20 0 a10 10 0 1 0 -20 0zM933.65 280.8 a10 10 0 1 0 20 0 a10 10 0 1 0 -20 0zM933.65 180.8 a10 10 0 1 0 20 0 a10 10 0 1 0 -20 0zM1020.26 430.8 a10 10 0 1 0 20 0 a10 10 0 1 0 -20 0zM1106.86 480.8 a10 10 0 1 0 20 0 a10 10 0 1 0 -20 0zM1106.86 580.8 a10 10 0 1 0 20 0 a10 10 0 1 0 -20 0zM1020.26 630.8 a10 10 0 1 0 20 0 a10 10 0 1 0 -20 0zM1193.46 130.8 a10 10 0 1 0 20 0 a10 10 0 1 0 -20 0zM1280.07 180.8 a10 10 0 1 0 20 0 a10 10 0 1 0 -20 0zM1280.07 280.8 a10 10 0 1 0 20 0 a10 10 0 1 0 -20 0zM1193.46 330.8 a10 10 0 1 0 20 0 a10 10 0 1 0 -20 0zM1193.46 630.8 a10 10 0 1 0 20 0 a10 10 0 1 0 -20 0zM1193.46 730.8 a10 10 0 1 0 20 0 a10 10 0 1 0 -20 0zM1106.86 780.8 a10 10 0 1 0 20 0 a10 10 0 1 0 -20 0zM1020.25 730.8 a10 10 0 1 0 20 0 a10 10 0 1 0 -20 0zM1020.25 630.8 a10 10 0 1 0 20 0 a10 10 0 1 0 -20 0zM1366.67 130.8 a10 10 0 1 0 20 0 a10 10 0 1 0 -20 0zM1453.28 180.8 a10 10 0 1 0 20 0 a10 10 0 1 0 -20 0zM1453.28 280.8 a10 10 0 1 0 20 0 a10 10 0 1 0 -20 0zM1366.67 330.8 a10 10 0 1 0 20 0 a10 10 0 1 0 -20 0zM1366.67 430.8 a10 10 0 1 0 20 0 a10 10 0 1 0 -20 0zM1280.07 480.8 a10 10 0 1 0 20 0 a10 10 0 1 0 -20 0zM1193.46 430.8 a10 10 0 1 0 20 0 a10 10 0 1 0 -20 0zM1539.88 430.8 a10 10 0 1 0 20 0 a10 10 0 1 0 -20 0zM1626.49 480.8 a10 10 0 1 0 20 0 a10 10 0 1 0 -20 0zM1626.49 580.8 a10 10 0 1 0 20 0 a10 10 0 1 0 -20 0zM1539.88 630.8 a10 10 0 1 0 20 0 a10 10 0 1 0 -20 0zM1453.28 580.8 a10 10 0 1 0 20 0 a10 10 0 1 0 -20 0zM1453.28 480.8 a10 10 0 1 0 20 0 a10 10 0 1 0 -20 0z" fill="rgba(0, 0, 0, 0)"></path>
        <path d="M0.55 -33L43.85 -8L43.85 42L0.55 67L-42.75 42L-42.75 -8zM0.55 117L43.85 142L43.85 192L0.55 217L-42.75 192L-42.75 142zM43.85 342L87.16 367L87.16 417L43.85 442L0.55 417L0.55 367zM0.55 417L43.85 442L43.85 492L0.55 517L-42.75 492L-42.75 442zM130.46 42L173.76 67L173.76 117L130.46 142L87.16 117L87.16 67zM87.16 267L130.46 292L130.46 342L87.16 367L43.85 342L43.85 292zM130.46 492L173.76 517L173.76 567L130.46 592L87.16 567L87.16 517zM173.76 117L217.06 142L217.06 192L173.76 217L130.46 192L130.46 142zM173.76 267L217.06 292L217.06 342L173.76 367L130.46 342L130.46 292zM217.06 342L260.37 367L260.37 417L217.06 442L173.76 417L173.76 367zM303.67 42L346.97 67L346.97 117L303.67 142L260.37 117L260.37 67zM260.37 117L303.67 142L303.67 192L260.37 217L217.06 192L217.06 142zM260.37 267L303.67 292L303.67 342L260.37 367L217.06 342L217.06 292zM260.37 417L303.67 442L303.67 492L260.37 517L217.06 492L217.06 442zM346.97 -33L390.27 -8L390.27 42L346.97 67L303.67 42L303.67 -8zM390.27 42L433.58 67L433.58 117L390.27 142L346.97 117L346.97 67zM346.97 267L390.27 292L390.27 342L346.97 367L303.67 342L303.67 292zM390.27 342L433.58 367L433.58 417L390.27 442L346.97 417L346.97 367zM390.27 492L433.58 517L433.58 567L390.27 592L346.97 567L346.97 517zM433.58 -33L476.88 -8L476.88 42L433.58 67L390.27 42L390.27 -8zM476.88 42L520.18 67L520.18 117L476.88 142L433.58 117L433.58 67zM433.58 417L476.88 442L476.88 492L433.58 517L390.27 492L390.27 442zM476.88 492L520.18 517L520.18 567L476.88 592L433.58 567L433.58 517zM520.18 117L563.48 142L563.48 192L520.18 217L476.88 192L476.88 142zM563.48 192L606.78 217L606.78 267L563.48 292L520.18 267L520.18 217zM520.18 267L563.48 292L563.48 342L520.18 367L476.88 342L476.88 292zM563.48 492L606.78 517L606.78 567L563.48 592L520.18 567L520.18 517zM650.09 192L693.39 217L693.39 267L650.09 292L606.78 267L606.78 217zM606.78 267L650.09 292L650.09 342L606.78 367L563.48 342L563.48 292zM650.09 342L693.39 367L693.39 417L650.09 442L606.78 417L606.78 367zM693.39 -33L736.69 -8L736.69 42L693.39 67L650.09 42L650.09 -8zM693.39 117L736.69 142L736.69 192L693.39 217L650.09 192L650.09 142zM736.69 342L780 367L780 417L736.69 442L693.39 417L693.39 367zM780 -33L823.3 -8L823.3 42L780 67L736.69 42L736.69 -8zM780 117L823.3 142L823.3 192L780 217L736.69 192L736.69 142zM780 417L823.3 442L823.3 492L780 517L736.69 492L736.69 442zM823.3 492L866.6 517L866.6 567L823.3 592L780 567L780 517zM866.6 117L909.9 142L909.9 192L866.6 217L823.3 192L823.3 142zM909.9 342L953.21 367L953.21 417L909.9 442L866.6 417L866.6 367zM909.9 492L953.21 517L953.21 567L909.9 592L866.6 567L866.6 517zM996.51 42L1039.81 67L1039.81 117L996.51 142L953.21 117L953.21 67zM953.21 117L996.51 142L996.51 192L953.21 217L909.9 192L909.9 142zM953.21 267L996.51 292L996.51 342L953.21 367L909.9 342L909.9 292zM996.51 342L1039.81 367L1039.81 417L996.51 442L953.21 417L953.21 367zM1083.11 42L1126.41 67L1126.41 117L1083.11 142L1039.81 117L1039.81 67zM1083.11 192L1126.41 217L1126.41 267L1083.11 292L1039.81 267L1039.81 217zM1039.81 417L1083.11 442L1083.11 492L1039.81 517L996.51 492L996.51 442zM1083.11 492L1126.41 517L1126.41 567L1083.11 592L1039.81 567L1039.81 517zM1126.41 -33L1169.72 -8L1169.72 42L1126.41 67L1083.11 42L1083.11 -8zM1169.72 42L1213.02 67L1213.02 117L1169.72 142L1126.41 117L1126.41 67zM1126.41 267L1169.72 292L1169.72 342L1126.41 367L1083.11 342L1083.11 292zM1169.72 492L1213.02 517L1213.02 567L1169.72 592L1126.41 567L1126.41 517zM1213.02 -33L1256.32 -8L1256.32 42L1213.02 67L1169.72 42L1169.72 -8zM1213.02 117L1256.32 142L1256.32 192L1213.02 217L1169.72 192L1169.72 142zM1256.32 492L1299.63 517L1299.63 567L1256.32 592L1213.02 567L1213.02 517zM1342.93 42L1386.23 67L1386.23 117L1342.93 142L1299.63 117L1299.63 67zM1299.63 117L1342.93 142L1342.93 192L1299.63 217L1256.32 192L1256.32 142zM1299.63 267L1342.93 292L1342.93 342L1299.63 367L1256.32 342L1256.32 292zM1342.93 492L1386.23 517L1386.23 567L1342.93 592L1299.63 567L1299.63 517z" stroke="url(#SvgjsLinearGradient2039)" stroke-width="2"></path>
    </g>
    <defs>
        <mask id="SvgjsMask2038">
            <rect width="1440" height="560" fill="#ffffff"></rect>
        </mask>
        <linearGradient x1="1440" y1="280" x2="0" y2="280" gradientUnits="userSpaceOnUse" id="SvgjsLinearGradient2039">
            <stop stop-color="rgba(0, 111, 255, 1)" offset="0"></stop>
            <stop stop-color="rgba(255, 255, 255, 1)" offset="1"></stop>
        </linearGradient>
    </defs>
</svg>