<svg xmlns="http://www.w3.org/2000/svg" version="1.1" xmlns:xlink="http://www.w3.org/1999/xlink" xmlns:svgjs="http://svgjs.com/svgjs" width="1440" height="560" preserveAspectRatio="none" viewBox="0 0 1440 560">
    <g mask="url(&quot;#SvgjsMask1003&quot;)" fill="none">
        <rect width="1440" height="560" x="0" y="0" fill="url(#SvgjsLinearGradient1004)"></rect>
        <g mask="url(&quot;#SvgjsMask1005&quot;)">
            <path d="M1470 290L1450 290" stroke="rgba(58, 0, 255, 1)" stroke-width="3.33"></path>
            <path d="M1445 290 a5 5 0 1 0 10 0 a5 5 0 1 0 -10 0z" fill="rgba(58, 0, 255, 1)"></path>
            <path d="M1010 330L990 310L970 310L950 310L930 310L910 310L890 310M1270 290L1250 290L1230 290M1210 310L1190 290L1170 290L1150 290L1130 290L1110 290L1090 290M1070 330L1050 310L1030 310L1010 310L990 290M1170 310L1150 310L1130 310L1110 310L1090 310L1070 310M1090 350L1070 350L1050 370L1030 370L1010 370M1470 270L1450 270L1430 270L1410 270L1390 290L1370 290L1350 290L1330 290L1310 290L1290 290L1270 290L1250 310L1230 310L1210 310L1190 310L1170 310L1150 330L1130 330L1110 350L1090 350L1070 330L1050 330L1030 330L1010 330L990 330L970 330L950 330" stroke="rgba(58, 0, 255, 1)" stroke-width="3.33"></path>
            <path d="M945 330 a5 5 0 1 0 10 0 a5 5 0 1 0 -10 0zM885 310 a5 5 0 1 0 10 0 a5 5 0 1 0 -10 0zM1225 290 a5 5 0 1 0 10 0 a5 5 0 1 0 -10 0zM1085 290 a5 5 0 1 0 10 0 a5 5 0 1 0 -10 0zM985 290 a5 5 0 1 0 10 0 a5 5 0 1 0 -10 0zM1065 310 a5 5 0 1 0 10 0 a5 5 0 1 0 -10 0zM1005 370 a5 5 0 1 0 10 0 a5 5 0 1 0 -10 0z" fill="rgba(58, 0, 255, 1)"></path>
            <path d="M1310 310L1290 330L1270 330M1330 310L1310 330M1350 310L1330 330L1310 350M1390 310L1370 330L1350 330M1470 310L1450 310L1430 310L1410 310L1390 310L1370 310L1350 310L1330 310L1310 310L1290 310L1270 310L1250 330L1230 330L1210 330L1190 330L1170 330L1150 350" stroke="rgba(0, 255, 153, 1)" stroke-width="3.33"></path>
            <path d="M1145 350 a5 5 0 1 0 10 0 a5 5 0 1 0 -10 0zM1265 330 a5 5 0 1 0 10 0 a5 5 0 1 0 -10 0zM1305 330 a5 5 0 1 0 10 0 a5 5 0 1 0 -10 0zM1305 350 a5 5 0 1 0 10 0 a5 5 0 1 0 -10 0zM1345 330 a5 5 0 1 0 10 0 a5 5 0 1 0 -10 0z" fill="rgba(0, 255, 153, 1)"></path>
            <path d="M1370 270L1350 250M1450 250L1430 230L1410 230M1330 270L1310 250L1290 250L1270 270M1470 250L1450 250L1430 250L1410 250L1390 250L1370 270L1350 270L1330 270L1310 270" stroke="rgba(0, 255, 153, 1)" stroke-width="3.33"></path>
            <path d="M1305 270 a5 5 0 1 0 10 0 a5 5 0 1 0 -10 0zM1345 250 a5 5 0 1 0 10 0 a5 5 0 1 0 -10 0zM1405 230 a5 5 0 1 0 10 0 a5 5 0 1 0 -10 0zM1265 270 a5 5 0 1 0 10 0 a5 5 0 1 0 -10 0z" fill="rgba(0, 255, 153, 1)"></path>
            <path d="M1250 350L1230 370L1210 370M1270 350L1250 370L1230 390L1210 390L1190 390M1290 350L1270 370M1370 350L1350 350L1330 350M1130 370L1110 390M1470 330L1450 330L1430 330L1410 350L1390 350L1370 350L1350 370L1330 370L1310 370L1290 350L1270 350L1250 350L1230 350L1210 350L1190 350L1170 350L1150 370L1130 370L1110 370L1090 370" stroke="rgba(255, 0, 141, 1)" stroke-width="3.33"></path>
            <path d="M1085 370 a5 5 0 1 0 10 0 a5 5 0 1 0 -10 0zM1205 370 a5 5 0 1 0 10 0 a5 5 0 1 0 -10 0zM1185 390 a5 5 0 1 0 10 0 a5 5 0 1 0 -10 0zM1265 370 a5 5 0 1 0 10 0 a5 5 0 1 0 -10 0zM1325 350 a5 5 0 1 0 10 0 a5 5 0 1 0 -10 0zM1105 390 a5 5 0 1 0 10 0 a5 5 0 1 0 -10 0z" fill="rgba(255, 0, 141, 1)"></path>
            <path d="M1430 210L1410 190L1390 190L1370 190L1350 190L1330 190L1310 190L1290 190L1270 190L1250 190M1130 250L1110 230L1090 230M1250 250L1230 270L1210 270L1190 270L1170 270M1070 250L1050 230L1030 230L1010 230L990 230L970 230L950 210M950 230L930 250L910 250L890 250M1290 230L1270 210L1250 210L1230 210L1210 210M1350 210L1330 230L1310 230M1470 230L1450 210L1430 210L1410 210L1390 210L1370 210L1350 210L1330 210L1310 210L1290 230L1270 250L1250 250L1230 250L1210 250L1190 250L1170 250L1150 250L1130 250L1110 250L1090 250L1070 250L1050 250L1030 250L1010 250L990 250L970 250L950 230L930 230" stroke="rgba(255, 0, 141, 1)" stroke-width="3.33"></path>
            <path d="M925 230 a5 5 0 1 0 10 0 a5 5 0 1 0 -10 0zM1245 190 a5 5 0 1 0 10 0 a5 5 0 1 0 -10 0zM1085 230 a5 5 0 1 0 10 0 a5 5 0 1 0 -10 0zM1165 270 a5 5 0 1 0 10 0 a5 5 0 1 0 -10 0zM945 210 a5 5 0 1 0 10 0 a5 5 0 1 0 -10 0zM885 250 a5 5 0 1 0 10 0 a5 5 0 1 0 -10 0zM1205 210 a5 5 0 1 0 10 0 a5 5 0 1 0 -10 0zM1305 230 a5 5 0 1 0 10 0 a5 5 0 1 0 -10 0z" fill="rgba(255, 0, 141, 1)"></path>
            <path d="M1270 390L1250 390M1470 350L1450 350L1430 350L1410 370L1390 370L1370 370L1350 390L1330 390L1310 390L1290 390L1270 390L1250 410" stroke="rgba(0, 255, 153, 1)" stroke-width="3.33"></path>
            <path d="M1245 410 a5 5 0 1 0 10 0 a5 5 0 1 0 -10 0zM1245 390 a5 5 0 1 0 10 0 a5 5 0 1 0 -10 0z" fill="rgba(0, 255, 153, 1)"></path>
            <path d="M1230 430L1210 430L1190 430M1190 450L1170 470L1150 470L1130 470L1110 470M1470 370L1450 370L1430 370L1410 390L1390 390L1370 390L1350 410L1330 410L1310 410L1290 410L1270 410L1250 430L1230 430L1210 450L1190 450L1170 450" stroke="rgba(255, 0, 141, 1)" stroke-width="3.33"></path>
            <path d="M1165 450 a5 5 0 1 0 10 0 a5 5 0 1 0 -10 0zM1185 430 a5 5 0 1 0 10 0 a5 5 0 1 0 -10 0zM1105 470 a5 5 0 1 0 10 0 a5 5 0 1 0 -10 0z" fill="rgba(255, 0, 141, 1)"></path>
            <path d="M1230 170L1210 150L1190 150M1190 170L1170 190L1150 190L1130 190M1170 170L1150 150L1130 150L1110 150L1090 130M1110 170L1090 170L1070 170M1270 170L1250 150L1230 150M1470 190L1450 170L1430 170L1410 170L1390 170L1370 170L1350 170L1330 170L1310 170L1290 170L1270 170L1250 170L1230 170L1210 170L1190 170L1170 170L1150 170L1130 170L1110 170L1090 150" stroke="rgba(58, 0, 255, 1)" stroke-width="3.33"></path>
            <path d="M1085 150 a5 5 0 1 0 10 0 a5 5 0 1 0 -10 0zM1185 150 a5 5 0 1 0 10 0 a5 5 0 1 0 -10 0zM1125 190 a5 5 0 1 0 10 0 a5 5 0 1 0 -10 0zM1085 130 a5 5 0 1 0 10 0 a5 5 0 1 0 -10 0zM1065 170 a5 5 0 1 0 10 0 a5 5 0 1 0 -10 0zM1225 150 a5 5 0 1 0 10 0 a5 5 0 1 0 -10 0z" fill="rgba(58, 0, 255, 1)"></path>
            <path d="M910 510L890 490L870 490L850 490L830 490L810 490M1010 490L990 510M1210 470L1190 470M930 510L910 490L890 470L870 470L850 470M970 490L950 510L930 530L910 530M870 510L850 530L830 530L810 530L790 530L770 530M1090 490L1070 470L1050 470L1030 470L1010 470M890 510L870 530M1470 390L1450 390L1430 390L1410 410L1390 410L1370 410L1350 430L1330 430L1310 430L1290 430L1270 430L1250 450L1230 450L1210 470L1190 490L1170 490L1150 490L1130 490L1110 490L1090 490L1070 490L1050 490L1030 490L1010 490L990 490L970 490L950 490L930 510L910 510L890 510L870 510L850 510L830 510" stroke="rgba(0, 255, 153, 1)" stroke-width="3.33"></path>
            <path d="M825 510 a5 5 0 1 0 10 0 a5 5 0 1 0 -10 0zM805 490 a5 5 0 1 0 10 0 a5 5 0 1 0 -10 0zM985 510 a5 5 0 1 0 10 0 a5 5 0 1 0 -10 0zM1185 470 a5 5 0 1 0 10 0 a5 5 0 1 0 -10 0zM845 470 a5 5 0 1 0 10 0 a5 5 0 1 0 -10 0zM905 530 a5 5 0 1 0 10 0 a5 5 0 1 0 -10 0zM765 530 a5 5 0 1 0 10 0 a5 5 0 1 0 -10 0zM1005 470 a5 5 0 1 0 10 0 a5 5 0 1 0 -10 0zM865 530 a5 5 0 1 0 10 0 a5 5 0 1 0 -10 0z" fill="rgba(0, 255, 153, 1)"></path>
            <path d="M1330 450L1310 470M1350 450L1330 470L1310 490L1290 490M1290 450L1270 470L1250 490L1230 490L1210 510L1190 530M1150 510L1130 530L1110 530L1090 530L1070 530L1050 530L1030 530M1390 430L1370 430M1470 410L1450 410L1430 410L1410 430L1390 430L1370 450L1350 450L1330 450L1310 450L1290 450L1270 450L1250 470L1230 470L1210 490L1190 510L1170 510L1150 510L1130 510L1110 510L1090 510" stroke="rgba(255, 0, 141, 1)" stroke-width="3.33"></path>
            <path d="M1085 510 a5 5 0 1 0 10 0 a5 5 0 1 0 -10 0zM1305 470 a5 5 0 1 0 10 0 a5 5 0 1 0 -10 0zM1285 490 a5 5 0 1 0 10 0 a5 5 0 1 0 -10 0zM1185 530 a5 5 0 1 0 10 0 a5 5 0 1 0 -10 0zM1025 530 a5 5 0 1 0 10 0 a5 5 0 1 0 -10 0zM1365 430 a5 5 0 1 0 10 0 a5 5 0 1 0 -10 0z" fill="rgba(255, 0, 141, 1)"></path>
            <path d="M1010 110L990 90L970 90L950 90L930 90L910 90L890 90L870 90L850 90L830 90L810 90M1430 150L1410 130L1390 130L1370 130L1350 130M1110 110L1090 90L1070 90M1150 130L1130 110L1110 90L1090 70L1070 70L1050 70L1030 70L1010 70L990 70M1170 130L1150 110L1130 90L1110 70L1090 50L1070 50L1050 50L1030 50L1010 50L990 50L970 50L950 50M970 130L950 150L930 150L910 150L890 150L870 150L850 150M1230 130L1210 110L1190 110L1170 110L1150 90L1130 70M1470 150L1450 150L1430 150L1410 150L1390 150L1370 150L1350 150L1330 150L1310 130L1290 130L1270 130L1250 130L1230 130L1210 130L1190 130L1170 130L1150 130L1130 130L1110 110L1090 110L1070 110L1050 110L1030 110L1010 110L990 110L970 130L950 130L930 130L910 130" stroke="rgba(255, 0, 141, 1)" stroke-width="3.33"></path>
            <path d="M905 130 a5 5 0 1 0 10 0 a5 5 0 1 0 -10 0zM805 90 a5 5 0 1 0 10 0 a5 5 0 1 0 -10 0zM1345 130 a5 5 0 1 0 10 0 a5 5 0 1 0 -10 0zM1065 90 a5 5 0 1 0 10 0 a5 5 0 1 0 -10 0zM985 70 a5 5 0 1 0 10 0 a5 5 0 1 0 -10 0zM945 50 a5 5 0 1 0 10 0 a5 5 0 1 0 -10 0zM845 150 a5 5 0 1 0 10 0 a5 5 0 1 0 -10 0zM1125 70 a5 5 0 1 0 10 0 a5 5 0 1 0 -10 0z" fill="rgba(255, 0, 141, 1)"></path>
        </g>
    </g>
    <defs>
        <mask id="SvgjsMask1003">
            <rect width="1440" height="560" fill="#ffffff"></rect>
        </mask>
        <linearGradient x1="100%" y1="50%" x2="0%" y2="50%" gradientUnits="userSpaceOnUse" id="SvgjsLinearGradient1004">
            <stop stop-color="#0e2a47" offset="0"></stop>
            <stop stop-color="rgba(0, 3, 255, 0)" offset="1"></stop>
        </linearGradient>
        <mask id="SvgjsMask1005">
            <rect width="1440" height="560" fill="white"></rect>
            <path d="M1447.5 290 a2.5 2.5 0 1 0 5 0 a2.5 2.5 0 1 0 -5 0z" fill="black"></path>
            <path d="M947.5 330 a2.5 2.5 0 1 0 5 0 a2.5 2.5 0 1 0 -5 0zM887.5 310 a2.5 2.5 0 1 0 5 0 a2.5 2.5 0 1 0 -5 0zM1227.5 290 a2.5 2.5 0 1 0 5 0 a2.5 2.5 0 1 0 -5 0zM1087.5 290 a2.5 2.5 0 1 0 5 0 a2.5 2.5 0 1 0 -5 0zM987.5 290 a2.5 2.5 0 1 0 5 0 a2.5 2.5 0 1 0 -5 0zM1067.5 310 a2.5 2.5 0 1 0 5 0 a2.5 2.5 0 1 0 -5 0zM1007.5 370 a2.5 2.5 0 1 0 5 0 a2.5 2.5 0 1 0 -5 0z" fill="black"></path>
            <path d="M1147.5 350 a2.5 2.5 0 1 0 5 0 a2.5 2.5 0 1 0 -5 0zM1267.5 330 a2.5 2.5 0 1 0 5 0 a2.5 2.5 0 1 0 -5 0zM1307.5 330 a2.5 2.5 0 1 0 5 0 a2.5 2.5 0 1 0 -5 0zM1307.5 350 a2.5 2.5 0 1 0 5 0 a2.5 2.5 0 1 0 -5 0zM1347.5 330 a2.5 2.5 0 1 0 5 0 a2.5 2.5 0 1 0 -5 0z" fill="black"></path>
            <path d="M1307.5 270 a2.5 2.5 0 1 0 5 0 a2.5 2.5 0 1 0 -5 0zM1347.5 250 a2.5 2.5 0 1 0 5 0 a2.5 2.5 0 1 0 -5 0zM1407.5 230 a2.5 2.5 0 1 0 5 0 a2.5 2.5 0 1 0 -5 0zM1267.5 270 a2.5 2.5 0 1 0 5 0 a2.5 2.5 0 1 0 -5 0z" fill="black"></path>
            <path d="M1087.5 370 a2.5 2.5 0 1 0 5 0 a2.5 2.5 0 1 0 -5 0zM1207.5 370 a2.5 2.5 0 1 0 5 0 a2.5 2.5 0 1 0 -5 0zM1187.5 390 a2.5 2.5 0 1 0 5 0 a2.5 2.5 0 1 0 -5 0zM1267.5 370 a2.5 2.5 0 1 0 5 0 a2.5 2.5 0 1 0 -5 0zM1327.5 350 a2.5 2.5 0 1 0 5 0 a2.5 2.5 0 1 0 -5 0zM1107.5 390 a2.5 2.5 0 1 0 5 0 a2.5 2.5 0 1 0 -5 0z" fill="black"></path>
            <path d="M927.5 230 a2.5 2.5 0 1 0 5 0 a2.5 2.5 0 1 0 -5 0zM1247.5 190 a2.5 2.5 0 1 0 5 0 a2.5 2.5 0 1 0 -5 0zM1087.5 230 a2.5 2.5 0 1 0 5 0 a2.5 2.5 0 1 0 -5 0zM1167.5 270 a2.5 2.5 0 1 0 5 0 a2.5 2.5 0 1 0 -5 0zM947.5 210 a2.5 2.5 0 1 0 5 0 a2.5 2.5 0 1 0 -5 0zM887.5 250 a2.5 2.5 0 1 0 5 0 a2.5 2.5 0 1 0 -5 0zM1207.5 210 a2.5 2.5 0 1 0 5 0 a2.5 2.5 0 1 0 -5 0zM1307.5 230 a2.5 2.5 0 1 0 5 0 a2.5 2.5 0 1 0 -5 0z" fill="black"></path>
            <path d="M1247.5 410 a2.5 2.5 0 1 0 5 0 a2.5 2.5 0 1 0 -5 0zM1247.5 390 a2.5 2.5 0 1 0 5 0 a2.5 2.5 0 1 0 -5 0z" fill="black"></path>
            <path d="M1167.5 450 a2.5 2.5 0 1 0 5 0 a2.5 2.5 0 1 0 -5 0zM1187.5 430 a2.5 2.5 0 1 0 5 0 a2.5 2.5 0 1 0 -5 0zM1107.5 470 a2.5 2.5 0 1 0 5 0 a2.5 2.5 0 1 0 -5 0z" fill="black"></path>
            <path d="M1087.5 150 a2.5 2.5 0 1 0 5 0 a2.5 2.5 0 1 0 -5 0zM1187.5 150 a2.5 2.5 0 1 0 5 0 a2.5 2.5 0 1 0 -5 0zM1127.5 190 a2.5 2.5 0 1 0 5 0 a2.5 2.5 0 1 0 -5 0zM1087.5 130 a2.5 2.5 0 1 0 5 0 a2.5 2.5 0 1 0 -5 0zM1067.5 170 a2.5 2.5 0 1 0 5 0 a2.5 2.5 0 1 0 -5 0zM1227.5 150 a2.5 2.5 0 1 0 5 0 a2.5 2.5 0 1 0 -5 0z" fill="black"></path>
            <path d="M827.5 510 a2.5 2.5 0 1 0 5 0 a2.5 2.5 0 1 0 -5 0zM807.5 490 a2.5 2.5 0 1 0 5 0 a2.5 2.5 0 1 0 -5 0zM987.5 510 a2.5 2.5 0 1 0 5 0 a2.5 2.5 0 1 0 -5 0zM1187.5 470 a2.5 2.5 0 1 0 5 0 a2.5 2.5 0 1 0 -5 0zM847.5 470 a2.5 2.5 0 1 0 5 0 a2.5 2.5 0 1 0 -5 0zM907.5 530 a2.5 2.5 0 1 0 5 0 a2.5 2.5 0 1 0 -5 0zM767.5 530 a2.5 2.5 0 1 0 5 0 a2.5 2.5 0 1 0 -5 0zM1007.5 470 a2.5 2.5 0 1 0 5 0 a2.5 2.5 0 1 0 -5 0zM867.5 530 a2.5 2.5 0 1 0 5 0 a2.5 2.5 0 1 0 -5 0z" fill="black"></path>
            <path d="M1087.5 510 a2.5 2.5 0 1 0 5 0 a2.5 2.5 0 1 0 -5 0zM1307.5 470 a2.5 2.5 0 1 0 5 0 a2.5 2.5 0 1 0 -5 0zM1287.5 490 a2.5 2.5 0 1 0 5 0 a2.5 2.5 0 1 0 -5 0zM1187.5 530 a2.5 2.5 0 1 0 5 0 a2.5 2.5 0 1 0 -5 0zM1027.5 530 a2.5 2.5 0 1 0 5 0 a2.5 2.5 0 1 0 -5 0zM1367.5 430 a2.5 2.5 0 1 0 5 0 a2.5 2.5 0 1 0 -5 0z" fill="black"></path>
            <path d="M907.5 130 a2.5 2.5 0 1 0 5 0 a2.5 2.5 0 1 0 -5 0zM807.5 90 a2.5 2.5 0 1 0 5 0 a2.5 2.5 0 1 0 -5 0zM1347.5 130 a2.5 2.5 0 1 0 5 0 a2.5 2.5 0 1 0 -5 0zM1067.5 90 a2.5 2.5 0 1 0 5 0 a2.5 2.5 0 1 0 -5 0zM987.5 70 a2.5 2.5 0 1 0 5 0 a2.5 2.5 0 1 0 -5 0zM947.5 50 a2.5 2.5 0 1 0 5 0 a2.5 2.5 0 1 0 -5 0zM847.5 150 a2.5 2.5 0 1 0 5 0 a2.5 2.5 0 1 0 -5 0zM1127.5 70 a2.5 2.5 0 1 0 5 0 a2.5 2.5 0 1 0 -5 0z" fill="black"></path>
        </mask>
    </defs>
</svg>